<?xml version="1.0" standalone="no"?><!DOCTYPE svg PUBLIC "-//W3C//DTD SVG 1.1//EN" "http://www.w3.org/Graphics/SVG/1.1/DTD/svg11.dtd"><svg t="1597198615228" class="icon" viewBox="0 0 1024 1024" version="1.1" xmlns="http://www.w3.org/2000/svg" p-id="10463" xmlns:xlink="http://www.w3.org/1999/xlink" width="200" height="200"><defs><style type="text/css"></style></defs><path d="M856.1 472.7v324.8c0 36.4-5.6 71.6-16 104.6H656.9v-0.1c-1.1 0.1-2.3 0.2-3.4 0.2-23.4 0-43.6-13.8-53-33.7a58.5 58.5 0 0 1-5.5-24.8c0-21.7 11.8-40.6 29.4-50.7V472.7c0-31.4-12.5-61.3-35.2-84s-52.5-35.2-84-35.2-61.3 12.5-84 35.2-35.2 52.5-35.2 84v94.6c24.8 6.8 43 29.4 43 56.4 0 26.9-18.2 49.6-43 56.4-4.9 1.4-10.1 2.1-15.4 2.1-1.2 0-2.3-0.1-3.4-0.2v0.2H167.7v-0.2c-1.1 0.1-2.3 0.2-3.4 0.2-3.4 0-6.7-0.2-9.9-0.7V472.7c0-193 157.9-350.9 350.9-350.9 96.5 0 184.2 39.5 247.8 103.1s103 151.3 103 247.8z" fill="#E73F5F" p-id="10464"></path><path d="M778.8 472.7v324.8c0 36.4-7.2 71.8-20.9 104.6h-101v-0.1c-1.1 0.1-2.3 0.2-3.4 0.2-23.4 0-43.6-13.8-53-33.7a58.5 58.5 0 0 1-5.5-24.8c0-21.7 11.8-40.6 29.4-50.7V472.7c0-31.4-12.5-61.3-35.2-84s-52.5-35.2-84-35.2-61.3 12.5-84 35.2-35.2 52.5-35.2 84v94.6c24.8 6.8 43 29.4 43 56.4 0 26.9-18.2 49.6-43 56.4-4.9 1.4-10.1 2.1-15.4 2.1-1.2 0-2.3-0.1-3.4-0.2v0.2H231.5V472.7c0-72.7 28.6-141.3 80.5-193.2S432.5 199 505.2 199s141.3 28.6 193.2 80.5c51.8 51.9 80.4 120.5 80.4 193.2z" fill="#F0E203" p-id="10465"></path><path d="M701.6 472.7v324.8c0 37.5-10.6 73.5-30.5 104.6h-14.2v-0.1c-1.1 0.1-2.3 0.2-3.4 0.2-23.4 0-43.6-13.8-53-33.7a58.5 58.5 0 0 1-5.5-24.8c0-21.7 11.8-40.6 29.4-50.7V472.7c0-31.4-12.5-61.3-35.2-84s-52.5-35.2-84-35.2-61.3 12.5-84 35.2-35.2 52.5-35.2 84v94.6c24.8 6.8 43 29.4 43 56.4 0 26.9-18.2 49.6-43 56.4-4.9 1.4-10.1 2.1-15.4 2.1-1.2 0-2.3-0.1-3.4-0.2v0.2h-58.4V472.7c0-52.1 20.5-101.3 57.8-138.6s86.5-57.8 138.6-57.8 101.3 20.5 138.6 57.8c37.2 37.3 57.8 86.5 57.8 138.6z" fill="#97EBFF" p-id="10466"></path><path d="M429 623.7c0 26.9-18.2 49.6-43 56.4V567.3c24.8 6.7 43 29.4 43 56.4zM624.3 793v4.5c0 25.7-8.4 50.4-23.9 70.9a58.5 58.5 0 0 1-5.5-24.8c0.1-21.6 11.9-40.5 29.4-50.6z" fill="#E73F5F" p-id="10467"></path><path d="M866.8 555.4v333.5H614.5V555.4h13.4c1.8 10.2 7.9 19 16.2 24.5 0.9 9.6 9 17.1 18.8 17.1 9.2 0 16.8-6.5 18.5-15.1 10.1-5.2 17.5-14.9 19.6-26.4h3l0.3 1.5v0.2c0.1 0.5 0.2 0.9 0.3 1.3 0 0.1 0.1 0.2 0.1 0.3l0.3 1.2c0.2 0.7 0.4 1.3 0.7 1.9 0.2 0.4 0.3 0.9 0.5 1.3 0.2 0.5 0.5 1.1 0.7 1.6s0.5 1 0.7 1.4c0.2 0.5 0.5 0.9 0.8 1.4s0.5 0.9 0.8 1.4c0.3 0.4 0.6 0.9 0.9 1.3l0.9 1.2 0.1 0.1c0.3 0.4 0.6 0.7 0.9 1.1 0.1 0.1 0.1 0.2 0.2 0.2 0.3 0.4 0.6 0.7 0.9 1.1l0.9 0.9 0.6 0.6 0.9 0.9c0.3 0.3 0.6 0.5 0.9 0.8 0 0.1 0.1 0.1 0.2 0.1 0.3 0.3 0.7 0.6 1.1 0.9l0.2 0.2c0.3 0.2 0.6 0.5 0.9 0.7 0.2 0.1 0.3 0.2 0.5 0.3l1.8 1.2c0.2 0.2 0.5 0.3 0.7 0.4 1.4 9.1 9.2 16.1 18.7 16.1s17.3-7 18.7-16.1l1.5-0.9c0.3-0.2 0.7-0.4 1-0.7 0.1-0.1 0.2-0.1 0.3-0.2l1.2-0.9s0.1 0 0.1-0.1c0.4-0.3 0.8-0.6 1.1-0.9 0 0 0-0.1 0.1-0.1 0.3-0.3 0.7-0.6 1-0.9l0.4-0.4c0.2-0.2 0.5-0.4 0.7-0.7 0.5-0.4 0.9-0.9 1.3-1.4 0.4-0.4 0.7-0.8 1-1.2s0.7-0.8 1-1.2l0.9-1.2v-0.1c0.3-0.4 0.6-0.9 0.9-1.3 0.2-0.4 0.5-0.8 0.7-1.1l0.3-0.6c0.2-0.3 0.4-0.7 0.6-1 0.2-0.3 0.4-0.7 0.5-1 0.3-0.6 0.6-1.3 0.9-2 0.2-0.4 0.3-0.8 0.5-1.3 0.2-0.6 0.5-1.3 0.7-1.9 0.1-0.4 0.2-0.8 0.4-1.2 0-0.1 0-0.2 0.1-0.3 0.1-0.4 0.2-0.9 0.3-1.3 0-0.1 0-0.1 0.1-0.2l0.3-1.5h2.2c1.6 9.2 6.7 17.2 13.7 22.7 1.9 1.5 3.9 2.8 6 3.8 1.8 8.6 9.4 15.1 18.5 15.1 9.8 0 18-7.5 18.8-17.2 8.3-5.5 14.3-14.2 16.1-24.4h14.4z" fill="#CE1743" p-id="10468"></path><path d="M701.6 555.4v333.5h-87.1V555.4h13.4c1.8 10.2 7.9 19 16.2 24.5 0.9 9.6 9 17.1 18.8 17.1 9.2 0 16.8-6.5 18.5-15.1 10.1-5.2 17.5-14.9 19.6-26.4l0.6-0.1z" fill="#07DBFF" p-id="10469"></path><path d="M793.1 578.1v310.8h-91.5V555.4h2.4l0.3 1.5v0.2c0.1 0.5 0.2 0.9 0.3 1.3 0 0.1 0.1 0.2 0.1 0.3l0.3 1.2c0.2 0.7 0.4 1.3 0.7 1.9 0.2 0.4 0.3 0.9 0.5 1.3 0.2 0.5 0.5 1.1 0.7 1.6s0.5 1 0.7 1.4c0.2 0.5 0.5 0.9 0.8 1.4s0.5 0.9 0.8 1.4c0.3 0.4 0.6 0.9 0.9 1.3l0.9 1.2 0.1 0.1c0.3 0.4 0.6 0.7 0.9 1.1 0.1 0.1 0.1 0.2 0.2 0.2 0.3 0.4 0.6 0.7 0.9 1.1l0.9 0.9 0.6 0.6 0.9 0.9c0.3 0.3 0.6 0.5 0.9 0.8 0 0.1 0.1 0.1 0.2 0.1 0.3 0.3 0.7 0.6 1.1 0.9l0.2 0.2c0.3 0.2 0.6 0.5 0.9 0.7 0.2 0.1 0.3 0.2 0.5 0.3l1.8 1.2c0.2 0.2 0.5 0.3 0.7 0.4 1.4 9.1 9.2 16.1 18.7 16.1s17.3-7 18.7-16.1l1.5-0.9c0.3-0.2 0.7-0.4 1-0.7 0.1-0.1 0.2-0.1 0.3-0.2l1.2-0.9s0.1 0 0.1-0.1c0.4-0.3 0.8-0.6 1.1-0.9 0 0 0-0.1 0.1-0.1 0.3-0.3 0.7-0.6 1-0.9l0.4-0.4c0.2-0.2 0.5-0.4 0.7-0.7 0.5-0.4 0.9-0.9 1.3-1.4 0.4-0.4 0.7-0.8 1-1.2s0.7-0.8 1-1.2l0.9-1.2v-0.1c0.3-0.4 0.6-0.9 0.9-1.3 0.2-0.4 0.5-0.8 0.7-1.1l0.3-0.6c0.2-0.3 0.4-0.7 0.6-1 0.2-0.3 0.4-0.7 0.5-1 0.3-0.6 0.6-1.3 0.9-2 0.2-0.4 0.3-0.8 0.5-1.3 0.2-0.6 0.5-1.3 0.7-1.9 0.1-0.4 0.2-0.8 0.4-1.2 0-0.1 0-0.2 0.1-0.3 0.1-0.4 0.2-0.9 0.3-1.3 0-0.1 0-0.1 0.1-0.2l0.3-1.5h2.2c1.7 9.2 6.8 17.2 13.8 22.8z" fill="#ED9507" p-id="10470"></path><path d="M932 830c0 39.9-32.3 72.2-72.2 72.2-1.2 0-2.3-0.1-3.4-0.2v0.2H656.9v-0.2c-1.1 0.1-2.3 0.2-3.4 0.2-32.3 0-58.5-26.2-58.5-58.5 0-18.8 8.9-35.5 22.7-46.2 9.9-7.7 22.3-12.2 35.8-12.2 1.4 0 2.8 0.1 4.1 0.2-0.3-2.6-0.6-5.3-0.7-8v-2.6c0-47.5 38.5-86 86-86 6.5 0 12.8 0.7 18.9 2.1 35.3 7.9 62.3 37.5 66.5 74 2.5-1.2 5.1-2.3 7.7-3.2 7.5-2.6 15.5-4.1 23.9-4.1 39.8 0 72.1 32.4 72.1 72.3z" fill="#97EBFF" p-id="10471"></path><path d="M918.6 819.5c0 38.3-31 69.3-69.3 69.3-1.1 0-2.2-0.1-3.3-0.2v0.2H654.4v-0.2c-1.1 0.1-2.2 0.2-3.3 0.2-31 0-56.1-25.1-56.1-56.1 0-15.3 6.1-29.2 16.1-39.3-5.9 8.5-9.4 18.7-9.4 29.8 0 28.8 23.4 52.2 52.2 52.2 1 0 2-0.1 3.1-0.2v0.2h178v-0.2c1 0 2 0.2 3.1 0.2 35.6 0 64.5-28.9 64.5-64.5 0-26.7-16.3-49.6-39.4-59.4 31.5 6.4 55.4 34.4 55.4 68z" fill="#07DBFF" p-id="10472"></path><path d="M827.6 767.9c0 48.2-39.1 87.3-87.3 87.3-3.9 0-7.8-0.3-11.6-0.8 43.1-5.7 76.3-42.6 76.3-87.2 0-32.5-17.6-60.9-43.8-76.1 31 7 54.7 33 58.4 65.1 2.2-1.1 4.5-2 6.8-2.8 0.8 4.6 1.2 9.5 1.2 14.5z" fill="#07DBFF" p-id="10473"></path><path d="M742.3 837.7c-18.3-26.9-49.2-44.6-84.2-44.6-14.4 0-28.1 3-40.5 8.4 9.9-7.7 22.3-12.2 35.8-12.2 1.4 0 2.8 0.1 4.1 0.2-0.3-2.6-0.6-5.3-0.7-8h2.4c37.8 0 70 23.2 83.1 56.2z" fill="#07DBFF" p-id="10474"></path><path d="M92 609.9c0 39.9 32.3 72.2 72.2 72.2 1.2 0 2.3-0.1 3.4-0.2v0.2h199.5v-0.1c1.1 0.1 2.3 0.2 3.4 0.2 32.3 0 58.5-26.2 58.5-58.5 0-18.8-8.9-35.5-22.7-46.2-9.9-7.7-22.3-12.2-35.8-12.2-1.4 0-2.8 0.1-4.1 0.2 0.3-2.6 0.6-5.3 0.7-8v-2.6c0-47.5-38.5-86-86-86-6.5 0-12.8 0.7-18.9 2.1-35.3 7.9-62.3 37.5-66.5 74-2.5-1.2-5.1-2.3-7.7-3.2-7.5-2.6-15.5-4.1-23.9-4.1-39.8 0-72.1 32.3-72.1 72.2z" fill="#97EBFF" p-id="10475"></path><path d="M92 599.4c0 38.3 31 69.3 69.3 69.3 1.1 0 2.2-0.1 3.3-0.2v0.2h191.5v-0.2c1.1 0.1 2.2 0.2 3.3 0.2 31 0 56.1-25.1 56.1-56.1 0-15.3-6.1-29.2-16.1-39.3 5.9 8.5 9.4 18.7 9.4 29.8 0 28.8-23.4 52.2-52.2 52.2-1 0-2-0.1-3.1-0.2v0.2h-178v-0.2c-1 0-2 0.2-3.1 0.2-35.6 0-64.5-28.9-64.5-64.5 0-26.7 16.3-49.6 39.4-59.4-31.5 6.5-55.3 34.5-55.3 68z" fill="#07DBFF" p-id="10476"></path><path d="M369.1 553.9c0 48.2-39.1 87.3-87.3 87.3-3.9 0-7.8-0.3-11.6-0.8 43.1-5.7 76.3-42.6 76.3-87.2 0-32.5-17.6-60.9-43.8-76.1 31 7 54.7 33 58.4 65.1 2.2-1.1 4.5-2 6.8-2.8 0.8 4.6 1.2 9.5 1.2 14.5zM237.6 628.3c-7.3-31.7-29.6-59.4-62.2-72.1-13.4-5.2-27.3-7.4-40.8-6.9 12-3.6 25.2-3.3 37.8 1.6 1.3 0.5 2.5 1.1 3.8 1.7 0.7-2.6 1.4-5.1 2.3-7.7 0.8 0.3 1.5 0.6 2.3 0.9 35 13.6 56.5 47 56.8 82.5z" fill="#07DBFF" p-id="10477"></path><path d="M925 764.8c-13.5-13.5-30.5-22.3-48.9-25.6V472.7c0-49.9-9.9-98.3-29.3-144.1-18.7-44.1-45.5-83.8-79.7-117.9-34.1-34.1-73.8-60.9-117.9-79.7-45.7-19.4-94.2-29.3-144.1-29.3-49.9 0-98.3 9.9-144.1 29.3-44.1 18.7-83.8 45.5-117.9 79.7s-60.9 73.8-79.7 117.9c-19.4 45.7-29.3 94.2-29.3 144.1v50c-13.2 4.5-25.2 12-35.3 22.1C81.6 562.2 72 585.4 72.1 610c0 50.8 41.4 92.2 92.2 92.2h206.3c43.3 0 78.5-35.2 78.5-78.5 0-30.6-17.6-57.2-43.2-70.1v-80.9c0-26.1 10.4-50.9 29.3-69.9 18.9-18.9 43.7-29.3 69.9-29.3s50.9 10.4 69.9 29.3c18.9 18.9 29.3 43.7 29.3 69.9v309.8c-17.9 14.4-29.4 36.5-29.4 61.2 0 43.3 35.2 78.5 78.5 78.5h206.3c50.8 0 92.2-41.4 92.2-92.2 0.1-24.6-9.5-47.8-26.9-65.2zM174.3 472.7c0-44.5 8.8-87.7 26.1-128.4 16.7-39.4 40.7-74.8 71.1-105.3s65.9-54.4 105.3-71.1c40.8-17.3 84-26.1 128.4-26.1 44.5 0 87.7 8.8 128.4 26.1 39.4 16.7 74.8 40.7 105.2 71.1 30.5 30.5 54.4 65.9 71.1 105.2 17.3 40.8 26.1 84 26.1 128.4v251.8c-8.8-16.3-21.7-29.9-37.2-39.6V472.7c0-78-30.7-151.7-86.4-207.3-55.5-55.7-129.2-86.4-207.2-86.4s-151.7 30.7-207.3 86.4c-55.7 55.7-86.4 129.3-86.4 207.3v2.3c-13.5 11.8-24 26.9-30.2 44.3-2.3-0.4-4.7-0.8-7-1v-45.6z m584.6 197.4c-5.3-0.8-10.6-1.2-16.1-1.2-7.3 0-14.3 0.7-21.2 2.1V472.7c0-57.4-22.6-111.7-63.7-152.7-41.1-41.1-95.3-63.7-152.7-63.7S393.5 278.9 352.5 320c-35.4 35.4-57.1 80.7-62.4 129.3-2.9-0.2-5.9-0.4-8.9-0.4-10 0-19.7 1.4-28.9 4C257 393 282.8 337 326.1 293.6c48.1-48.1 111.7-74.6 179.1-74.6 67.3 0 130.9 26.5 179.1 74.6 48.1 48.1 74.6 111.7 74.6 179.1v197.4z m-349.8-46.4c0 21.2-17.3 38.5-38.5 38.5-0.3 0-0.9-0.1-1.6-0.1-0.6-0.1-1.2-0.1-1.8-0.1-0.9 0-1.9 0.1-2.8 0.2H170.5c-1.5-0.2-3.1-0.3-4.6-0.1-0.3 0-1.3 0.1-1.6 0.1-28.8 0-52.2-23.4-52.2-52.2 0-14 5.4-27.1 15.2-37 7.9-8 18-13 28.9-14.7 0.2 0 0.5-0.1 0.7-0.1 2.4-0.3 4.8-0.5 7.3-0.5 7.8 0 15.6 1.8 23 5.3 5.8 2.8 12.7 2.6 18.3-0.5 5.7-3.1 9.5-8.8 10.2-15.2 3.8-33.3 32-58.4 65.5-58.4 36.4 0 66 29.6 66 66 0 2.3-0.2 4.9-0.6 8.2-0.7 5.9 1.3 11.8 5.4 16.2 4.1 4.3 9.9 6.6 15.9 6.1h0.2c1-0.1 1.8-0.1 2.4-0.1 3.1 0 6.1 0.4 9 1.1 0.8 0.2 1.5 0.5 2.3 0.6 15.8 4.7 27.3 19.4 27.3 36.7z m194.1-249.1c-26.5-26.5-61.3-41.1-98.1-41.1s-71.7 14.6-98.1 41.1c-26.5 26.5-41.1 61.3-41.1 98.1v18.5c-9.7-12.9-22.2-23.4-36.7-30.8 2.9-42.2 21-81.6 51.5-112.2 33.5-33.5 77.7-51.9 124.5-51.9s91 18.4 124.5 51.9 51.9 77.7 51.9 124.5v215.7c-16.6 11.8-29.7 28.2-37.3 47.3v-263c0-36.8-14.6-71.7-41.1-98.1z m256.5 507.6c-0.3 0-1.3-0.1-1.6-0.1-0.6-0.1-1.2-0.1-1.8-0.1-0.9 0-1.9 0.1-2.8 0.2H659.6c-1.5-0.2-3.1-0.3-4.6-0.1-0.6 0.1-1.3 0.1-1.6 0.1-21.2 0-38.5-17.3-38.5-38.5 0-14 7.5-26.2 18.7-33 0.3-0.2 0.7-0.4 1-0.6 5.6-3.1 12-4.9 18.8-4.9 0.6 0 1.4 0.1 2.4 0.1h0.2c5.9 0.4 11.8-1.8 15.9-6.1s6.1-10.2 5.4-16.2c-0.4-3.3-0.6-5.9-0.6-8.2 0-24.6 13.5-46.1 33.5-57.4 0.6-0.3 1.2-0.6 1.7-0.9 9.2-4.9 19.6-7.6 30.7-7.6 33.5 0 61.7 25.1 65.5 58.4 0.7 6.4 4.5 12.1 10.2 15.2 5.7 3.1 12.5 3.3 18.3 0.5 7.4-3.5 15.1-5.3 23-5.3 13.9 0 27 5.4 36.9 15.3 9.8 9.9 15.3 23 15.2 37 0.2 28.8-23.2 52.2-52 52.2z" fill="#3F1E01" p-id="10478"></path></svg>